# xmcd
#
# Track frame offsets: 
#        150
#        21530
#        52230
#        75980
#        116510
#        143905
#        156285
#
# Disc length: 2329 seconds
#
# Revision: 4
# Processed by: cddbd v1.5.1PL0 Copyright (c) Steve Scherf et al.
# Submitted via: ExactAudioCopy v0.95a5
#
DISCID=5b091707
DTITLE=Future Sound of London - Lifeforms
DYEAR=1994
DGENRE=Electronic
TTITLE0=Lifeforms (Path 1)
TTITLE1=Lifeforms (Path 2)
TTITLE2=Lifeforms (Path 3)
TTITLE3=Lifeforms (Path 4)
TTITLE4=Lifeforms (Path 5)
TTITLE5=Lifeforms (Path 6)
TTITLE6=Lifeforms (Path 7)
EXTD=
EXTT0=
EXTT1=
EXTT2=
EXTT3=
EXTT4=
EXTT5=
EXTT6=
PLAYORDER=
